<svg width="446" height="184" viewBox="0 0 446 184" fill="none" xmlns="http://www.w3.org/2000/svg">
<path d="M177.801 120.617C172.176 120.617 167.261 119.338 163.057 116.781C158.852 114.224 155.585 110.673 153.256 106.128C150.926 101.525 149.761 96.1845 149.761 90.1049C149.761 83.9684 150.954 78.5706 153.341 73.9115C155.784 69.1955 159.222 65.5307 163.653 62.917C168.142 60.2466 173.455 58.9113 179.591 58.9113C186.58 58.9113 192.375 60.5875 196.978 63.9398C201.58 67.2921 204.563 71.9228 205.927 77.832H193.739C192.83 75.0479 191.182 72.8887 188.796 71.3546C186.409 69.7637 183.341 68.9682 179.591 68.9682C173.625 68.9682 169.023 70.8717 165.784 74.6785C162.545 78.4286 160.926 83.5991 160.926 90.1901C160.926 96.7811 162.517 101.895 165.699 105.531C168.938 109.111 173.313 110.901 178.824 110.901C184.222 110.901 188.284 109.452 191.012 106.554C193.796 103.599 195.472 99.7356 196.04 94.9629H180.955V86.781H207.035V119.594H196.978L196.125 111.753C194.194 114.594 191.779 116.781 188.881 118.315C185.983 119.85 182.29 120.617 177.801 120.617Z" fill="white"/>
<path d="M213.123 119.594V58.2295H224.032V119.594H213.123Z" fill="white"/>
<path d="M251.202 120.617C247.111 120.617 243.418 119.679 240.122 117.804C236.884 115.929 234.299 113.344 232.367 110.048C230.492 106.696 229.554 102.832 229.554 98.4572C229.554 94.0822 230.52 90.2469 232.452 86.9514C234.384 83.5991 236.969 80.9854 240.208 79.1104C243.503 77.2354 247.196 76.2979 251.287 76.2979C255.321 76.2979 258.958 77.2354 262.197 79.1104C265.492 80.9854 268.077 83.5991 269.952 86.9514C271.884 90.2469 272.85 94.0822 272.85 98.4572C272.85 102.832 271.884 106.696 269.952 110.048C268.077 113.344 265.492 115.929 262.197 117.804C258.901 119.679 255.236 120.617 251.202 120.617ZM251.202 111.156C254.043 111.156 256.515 110.105 258.617 108.003C260.719 105.844 261.77 102.662 261.77 98.4572C261.77 94.2526 260.719 91.0992 258.617 88.9969C256.515 86.8378 254.071 85.7582 251.287 85.7582C248.39 85.7582 245.89 86.8378 243.787 88.9969C241.742 91.0992 240.719 94.2526 240.719 98.4572C240.719 102.662 241.742 105.844 243.787 108.003C245.89 110.105 248.361 111.156 251.202 111.156Z" fill="white"/>
<path d="M295.814 120.617C292.064 120.617 288.769 120.02 285.928 118.827C283.087 117.577 280.814 115.872 279.11 113.713C277.405 111.554 276.382 109.054 276.042 106.213H287.036C287.377 107.861 288.286 109.281 289.763 110.474C291.297 111.611 293.258 112.179 295.644 112.179C298.03 112.179 299.763 111.696 300.843 110.73C301.979 109.764 302.548 108.656 302.548 107.406C302.548 105.588 301.752 104.366 300.161 103.741C298.57 103.06 296.354 102.406 293.513 101.781C291.695 101.383 289.848 100.9 287.973 100.332C286.098 99.7641 284.365 99.0538 282.775 98.2015C281.24 97.2924 279.99 96.1561 279.025 94.7924C278.059 93.3719 277.576 91.639 277.576 89.5935C277.576 85.8434 279.053 82.69 282.007 80.1331C285.019 77.5763 289.223 76.2979 294.621 76.2979C299.621 76.2979 303.599 77.4627 306.553 79.7922C309.565 82.1218 311.354 85.3321 311.923 89.423H301.61C300.985 86.298 298.627 84.7355 294.536 84.7355C292.491 84.7355 290.9 85.1332 289.763 85.9287C288.684 86.7241 288.144 87.7185 288.144 88.9117C288.144 90.1617 288.968 91.156 290.616 91.8946C292.263 92.6333 294.451 93.3151 297.178 93.9401C300.133 94.6219 302.832 95.389 305.275 96.2413C307.775 97.0367 309.763 98.2584 311.241 99.9061C312.718 101.497 313.457 103.798 313.457 106.81C313.514 109.423 312.832 111.781 311.411 113.884C309.991 115.986 307.945 117.634 305.275 118.827C302.604 120.02 299.451 120.617 295.814 120.617Z" fill="white"/>
<path d="M336.331 120.617C332.581 120.617 329.286 120.02 326.445 118.827C323.604 117.577 321.331 115.872 319.626 113.713C317.922 111.554 316.899 109.054 316.558 106.213H327.553C327.894 107.861 328.803 109.281 330.28 110.474C331.814 111.611 333.774 112.179 336.161 112.179C338.547 112.179 340.28 111.696 341.36 110.73C342.496 109.764 343.064 108.656 343.064 107.406C343.064 105.588 342.269 104.366 340.678 103.741C339.087 103.06 336.871 102.406 334.03 101.781C332.212 101.383 330.365 100.9 328.49 100.332C326.615 99.7641 324.882 99.0538 323.291 98.2015C321.757 97.2924 320.507 96.1561 319.541 94.7924C318.575 93.3719 318.092 91.639 318.092 89.5935C318.092 85.8434 319.57 82.69 322.524 80.1331C325.536 77.5763 329.74 76.2979 335.138 76.2979C340.138 76.2979 344.115 77.4627 347.07 79.7922C350.081 82.1218 351.871 85.3321 352.439 89.423H342.127C341.502 86.298 339.144 84.7355 335.053 84.7355C333.007 84.7355 331.416 85.1332 330.28 85.9287C329.2 86.7241 328.661 87.7185 328.661 88.9117C328.661 90.1617 329.484 91.156 331.132 91.8946C332.78 92.6333 334.967 93.3151 337.695 93.9401C340.649 94.6219 343.348 95.389 345.791 96.2413C348.292 97.0367 350.28 98.2584 351.757 99.9061C353.235 101.497 353.973 103.798 353.973 106.81C354.03 109.423 353.348 111.781 351.928 113.884C350.507 115.986 348.462 117.634 345.791 118.827C343.121 120.02 339.968 120.617 336.331 120.617Z" fill="white"/>
<path d="M362.413 138.344L372.214 116.781H369.657L353.208 77.3206H365.055L376.902 107.065L389.26 77.3206H400.851L374.004 138.344H362.413Z" fill="white"/>
<path d="M69.4612 112.765L112.461 69.7649L105.39 62.6938L62.3901 105.694L69.4612 112.765Z" fill="white"/>
<path d="M86.4612 69.7649L69.4612 86.7649L62.3901 79.6938L79.3901 62.6938L86.4612 69.7649Z" fill="white"/>
<path d="M95.4612 112.765L112.461 95.7649L105.39 88.6938L88.3901 105.694L95.4612 112.765Z" fill="white"/>
<path fill-rule="evenodd" clip-rule="evenodd" d="M45.9258 129.229V45.2295H129.926V129.229H45.9258ZM55.9258 55.2295H119.926V119.229H55.9258V55.2295Z" fill="white"/>
</svg>
